<svg xmlns="http://www.w3.org/2000/svg" width="41.043" height="61.538" viewBox="0 0 41.043 61.538">
  <path id="Icon_ionic-ios-arrow-round-down" data-name="Icon ionic-ios-arrow-round-down" d="M51.5,47.119a2.793,2.793,0,0,0-3.933-.021L34.554,60.072V10.632a2.779,2.779,0,0,0-5.557,0v49.44l-13.017-13a2.813,2.813,0,0,0-3.933.021,2.767,2.767,0,0,0,.021,3.912L29.809,68.622h0a3.12,3.12,0,0,0,.876.577,2.652,2.652,0,0,0,1.069.214,2.786,2.786,0,0,0,1.945-.791L51.44,51.01A2.723,2.723,0,0,0,51.5,47.119Z" transform="translate(-11.247 -7.875)" fill="#fff"/>
</svg>
