<svg xmlns="http://www.w3.org/2000/svg" width="54.323" height="36.231" viewBox="0 0 54.323 36.231">
  <path id="left_arrow" data-name="left arrow" d="M35.537,19.68a2.466,2.466,0,0,1-3.472.019L20.574,8.246V51.889a2.453,2.453,0,0,1-4.906,0V8.246L4.177,19.718A2.483,2.483,0,0,1,.705,19.7a2.443,2.443,0,0,1,.019-3.453L16.385.7h0a2.754,2.754,0,0,1,.774-.509A2.341,2.341,0,0,1,18.1,0a2.459,2.459,0,0,1,1.717.7L35.48,16.246A2.4,2.4,0,0,1,35.537,19.68Z" transform="translate(0 36.231) rotate(-90)" fill="#e4382c"/>
</svg>
