<svg xmlns="http://www.w3.org/2000/svg" width="463.477" height="406" viewBox="0 0 463.477 406">
  <path id="Subtraction_36" data-name="Subtraction 36" d="M514.56,924h0c-15.809,0-31.755-.719-47.4-2.137-15.394-1.4-30.88-3.505-46.026-6.271-14.943-2.73-29.89-6.161-44.426-10.2-14.38-3.993-28.709-8.675-42.59-13.916a483.593,483.593,0,0,1-78.742-38.158,459.78,459.78,0,0,1-68.605-50.537,431.272,431.272,0,0,1-56.605-61.25,402.382,402.382,0,0,1-42.739-70.3,385.226,385.226,0,0,1-15.588-38.024,373.546,373.546,0,0,1-18.447-80.754C52.1,541.112,51.326,529.52,51.083,518H238.458c4.905,133.538,126.028,238.142,275.748,238.142h.354V924Z" transform="translate(-51.083 -518)" fill="#e4382c"/>
</svg>
