<svg xmlns="http://www.w3.org/2000/svg" xmlns:xlink="http://www.w3.org/1999/xlink" width="73" height="73" viewBox="0 0 73 73">
  <defs>
    <clipPath id="clip-path">
      <rect id="Rectangle_1010" data-name="Rectangle 1010" width="73" height="73" transform="translate(-6286.419 2499.581)" fill="#fff" stroke="#707070" stroke-width="1"/>
    </clipPath>
  </defs>
  <g id="online_analiys_icon" data-name="online analiys icon" transform="translate(6286.419 -2499.581)" clip-path="url(#clip-path)">
    <g id="analysis" transform="translate(-6286 2500.012)">
      <g id="Group_12714" data-name="Group 12714" transform="translate(4.864 4.841)">
        <g id="Group_12713" data-name="Group 12713">
          <path id="Path_14356" data-name="Path 14356" d="M33.7,8.291A25.394,25.394,0,1,0,59.1,33.685,25.394,25.394,0,0,0,33.7,8.291Zm0,2.418a22.951,22.951,0,0,1,18.762,9.758l-3.023,3.023a4.772,4.772,0,0,0-2.438-.689,4.837,4.837,0,0,0-4.837,4.837,4.772,4.772,0,0,0,.686,2.441L34.936,38a4.69,4.69,0,0,0-4.883,0l-5.5-5.5a4.772,4.772,0,0,0,.686-2.441,4.827,4.827,0,0,0-9.5-1.209H11.251A23.008,23.008,0,0,1,33.7,10.709Zm15.72,16.929a2.418,2.418,0,1,1-2.418-2.418A2.418,2.418,0,0,1,49.424,27.639ZM34.914,42.149A2.418,2.418,0,1,1,32.5,39.731,2.418,2.418,0,0,1,34.914,42.149ZM22.821,30.057A2.418,2.418,0,1,1,20.4,27.639,2.418,2.418,0,0,1,22.821,30.057ZM44.868,53.774A22.971,22.971,0,0,1,10.858,31.266h4.879A4.837,4.837,0,0,0,20.4,34.894a4.772,4.772,0,0,0,2.441-.686l5.5,5.5a4.772,4.772,0,0,0-.686,2.441,4.837,4.837,0,1,0,9.674,0,4.772,4.772,0,0,0-.686-2.441l7.918-7.918a4.772,4.772,0,0,0,2.441.686,4.837,4.837,0,0,0,4.837-4.837,4.772,4.772,0,0,0-.686-2.441l2.636-2.635A22.955,22.955,0,0,1,44.868,53.774Z" transform="translate(-8.311 -8.291)" fill="#fff"/>
        </g>
      </g>
      <g id="Group_12716" data-name="Group 12716" transform="translate(0 0)">
        <g id="Group_12715" data-name="Group 12715">
          <path id="Path_14357" data-name="Path 14357" d="M60.489,12.117a4.837,4.837,0,0,0,4.665-3.628h7.427V6.071H65.154a4.827,4.827,0,0,0-9.5,1.209,4.772,4.772,0,0,0,.686,2.441l-2.125,2.125a30.231,30.231,0,1,0-7.548,43.781l3.649,3.649,1.71,1.71,9.734,9.734a6.339,6.339,0,0,0,8.965-8.965l-9.734-9.734-1.71-1.71L55.63,46.662a30.13,30.13,0,0,0,0-32.814l2.418-2.418A4.774,4.774,0,0,0,60.489,12.117Zm0-7.255A2.418,2.418,0,1,1,58.07,7.28,2.418,2.418,0,0,1,60.489,4.862Zm8.525,58.6a3.922,3.922,0,1,1-5.482,5.609l-.063-.063-9.734-9.734,5.546-5.546ZM57.57,52.021l-5.546,5.546L48.677,54.22c.17-.131.33-.274.5-.409s.363-.3.543-.446c.265-.222.526-.447.782-.678.132-.121.258-.242.387-.363q.744-.7,1.44-1.44c.121-.129.242-.255.363-.387.231-.256.456-.518.678-.782q.227-.268.446-.543c.133-.167.277-.326.408-.5ZM52.88,46.4c-.381.532-.774,1.053-1.189,1.555-.121.146-.25.288-.375.432q-.555.646-1.146,1.253-.258.266-.524.524-.6.591-1.253,1.146c-.144.121-.285.253-.432.375-.5.415-1.023.808-1.555,1.189A27.856,27.856,0,1,1,52.88,46.4Z" transform="translate(0 -0.021)" fill="#fff"/>
        </g>
      </g>
    </g>
  </g>
</svg>
