<svg xmlns="http://www.w3.org/2000/svg" width="466" height="893" viewBox="0 0 466 893">
  <path id="quate" d="M463.559,893c-15.811,0-31.758-.719-47.4-2.136-15.41-1.4-30.9-3.508-46.026-6.272-14.935-2.729-29.883-6.159-44.426-10.2-14.38-3.993-28.709-8.675-42.59-13.916a483.607,483.607,0,0,1-78.742-38.158,459.728,459.728,0,0,1-68.6-50.537,431.273,431.273,0,0,1-56.606-61.25,402.334,402.334,0,0,1-42.739-70.3A385.19,385.19,0,0,1,20.84,602.208,373.571,373.571,0,0,1,2.393,521.454C1.07,509.822.291,498,.067,486.216H0V0H466V486.216H187.431c4.4,132.41,126.419,238.927,275.776,238.927h.353V893Z" fill="#e4382c"/>
</svg>
