<svg xmlns="http://www.w3.org/2000/svg" width="54.323" height="36.231" viewBox="0 0 54.323 36.231">
  <path id="right_arrow" data-name="right arrow" d="M35.537,34.643a2.466,2.466,0,0,0-3.472-.019L20.574,46.078V2.434a2.453,2.453,0,0,0-4.906,0V46.078L4.177,34.605a2.483,2.483,0,0,0-3.472.019,2.443,2.443,0,0,0,.019,3.453L16.385,53.625h0a2.754,2.754,0,0,0,.774.509,2.341,2.341,0,0,0,.943.189,2.459,2.459,0,0,0,1.717-.7L35.48,38.077A2.4,2.4,0,0,0,35.537,34.643Z" transform="translate(0 36.231) rotate(-90)" fill="#e4382c"/>
</svg>
