<svg xmlns="http://www.w3.org/2000/svg" width="30.259" height="30.258" viewBox="0 0 30.259 30.258">
  <g id="_028-telephone-2" data-name="028-telephone-2" transform="translate(0)">
    <g id="Group_2066" data-name="Group 2066" transform="translate(0 1.506)">
      <g id="Group_2065" data-name="Group 2065">
        <path id="Path_3875" data-name="Path 3875" d="M28.1,48.049l-3.756-3.888-.011-.011a2.665,2.665,0,0,0-3.773,0l-1.715,1.715a2.019,2.019,0,0,1-2.858,0h0l-5.964-5.824a2.021,2.021,0,0,1,0-2.859l1.715-1.715a2.672,2.672,0,0,0,0-3.774L7.966,27.919a2.67,2.67,0,0,0-3.773,0L2.936,29.177l-.114.114a9.619,9.619,0,0,0,0,13.609L13.13,53.07a9.611,9.611,0,0,0,13.591.013c.021-.019,1.353-1.247,1.373-1.267A2.672,2.672,0,0,0,28.1,48.049ZM5.451,29.177a.89.89,0,0,1,1.257,0l3.773,3.774a.889.889,0,0,1,0,1.258l-.629.629-5.03-5.032Zm8.936,22.635L4.079,41.642a7.84,7.84,0,0,1-.491-10.554L8.6,36.1a3.806,3.806,0,0,0,.166,5.2l5.965,5.825a3.8,3.8,0,0,0,5.194.164L24.938,52.3A7.815,7.815,0,0,1,14.387,51.812Zm12.46-1.264-.6.551-5.06-5.061.629-.629a.888.888,0,0,1,1.253,0l3.765,3.9A.891.891,0,0,1,26.847,50.548Z" transform="translate(-0.002 -27.139)" fill="#fff"/>
      </g>
    </g>
    <g id="Group_2068" data-name="Group 2068" transform="translate(15.268 0)">
      <g id="Group_2067" data-name="Group 2067">
        <path id="Path_3876" data-name="Path 3876" d="M242.854.02a.833.833,0,0,0,0,1.666,12.507,12.507,0,0,1,12.493,12.493.833.833,0,1,0,1.666,0A14.151,14.151,0,0,0,242.854.02Z" transform="translate(-242.021 -0.02)" fill="#fff"/>
      </g>
    </g>
    <g id="Group_2070" data-name="Group 2070" transform="translate(15.268 3.332)">
      <g id="Group_2069" data-name="Group 2069">
        <path id="Path_3877" data-name="Path 3877" d="M242.854,60.015a.833.833,0,0,0,0,1.666,9.172,9.172,0,0,1,9.161,9.162.833.833,0,1,0,1.666,0A10.84,10.84,0,0,0,242.854,60.015Z" transform="translate(-242.021 -60.015)" fill="#fff"/>
      </g>
    </g>
    <g id="Group_2072" data-name="Group 2072" transform="translate(14.662 7.269)">
      <g id="Group_2071" data-name="Group 2071">
        <path id="Path_3878" data-name="Path 3878" d="M242.854,120.011a.833.833,0,0,0,0,1.666,5.837,5.837,0,0,1,5.83,5.83.833.833,0,1,0,1.666,0A7.5,7.5,0,0,0,242.854,120.011Z" transform="translate(-242.021 -120.011)" fill="#fff"/>
      </g>
    </g>
    <g id="Group_2074" data-name="Group 2074" transform="translate(14.488 10.775)">
      <g id="Group_2073" data-name="Group 2073">
        <path id="Path_3879" data-name="Path 3879" d="M242.854,180.006a.833.833,0,0,0,0,1.666,2.5,2.5,0,0,1,2.5,2.5.833.833,0,1,0,1.666,0A4.169,4.169,0,0,0,242.854,180.006Z" transform="translate(-242.021 -180.006)" fill="#fff"/>
      </g>
    </g>
  </g>
</svg>
